name processed_emg_signals
nRows=57
nColumns=7
 
endheader
time	RGLTMED	RRF	RADDLONG	RST	RTA	RGM
0.0027879999999999	-0.3624017117545008	-0.2708475803956389	-0.2861066022887826	-0.3776607336476445	-0.1106278505176305	-0.0877393176779151
0.0037879999999999	-0.3318836679682135	-0.2174410037696361	-0.2708475803956389	-0.3318836679682135	-0.0724802957847714	-0.1106278505176305
0.0047879999999999	-0.3318836679682135	-0.2708475803956389	-0.3395131789147854	-0.3624017117545008	-0.1029983395710587	-0.1869229599833488
0.0057879999999999	-0.2708475803956389	-0.2555885585024953	-0.2784770913422107	-0.3776607336476445	-0.0114442082121968	-0.1258868724107742
0.0067879999999999	-0.2632180694490671	-0.179293449036777	-0.2937361132353544	-0.3318836679682135	-0.0267032301053404	-0.1487754052504897
0.0077879999999999	-0.3242541570216417	-0.2784770913422107	-0.3624017117545008	-0.3929197788238525	-0.1258868724107742	-0.0801098067313432
0.0087879999999999	-0.3013656241819262	-0.2250705147162079	-0.3242541570216417	-0.3166246460750699	-0.0267032301053404	-0.1411458943039178
0.009787999999999901	-0.2403295366093516	-0.3318836679682135	-0.3089951351284981	-0.3776607336476445	-0.0877393176779151	-0.0877393176779151
0.0107879999999999	-0.3318836679682135	-0.2250705147162079	-0.2327000256627798	-0.3700312227010727	-0.0801098067313432	-0.1716639380902052
0.011787999999999901	-0.3013656241819262	-0.2403295366093516	-0.2174410037696361	-0.2861066022887826	-0.0495917629450559	-0.1258868724107742
0.0127879999999999	-0.354772200807929	-0.2250705147162079	-0.2632180694490671	-0.3318836679682135	-0.0343327410519123	-0.1487754052504897
0.0137879999999999	-0.2861066022887826	-0.2021819818764925	-0.2861066022887826	-0.4081787541508674	-0.1182573614642024	-0.1640344271436333
0.0147879999999999	-0.2479590475559234	-0.2479590475559234	-0.2784770913422107	-0.3395131789147854	-0.0953688286244869	-0.0953688286244869
0.0157879999999999	-0.2937361132353544	-0.3089951351284981	-0.2937361132353544	-0.3624017117545008	-0.0877393176779151	-0.1564049161970615
0.0167879999999999	-0.2632180694490671	-0.2021819818764925	-0.3929197788238525	-0.3242541570216417	-0.1258868724107742	-0.1106278505176305
0.0177879999999999	-0.3013656241819262	-0.2250705147162079	-0.3013656241819262	-0.2708475803956389	-0.0572212738916277	-0.1029983395710587
0.018787999999999902	-0.354772200807929	-0.2479590475559234	-0.3166246460750699	-0.3318836679682135	-0.0953688286244869	-0.1869229599833488
0.019787999999999903	-0.2708475803956389	-0.179293449036777	-0.2861066022887826	-0.2861066022887826	-0.0648507848381996	-0.1411458943039178
0.020787999999999904	-0.4234378226101398	-0.2555885585024953	-0.2937361132353544	-0.3471426898613572	-0.1182573614642024	-0.1487754052504897
0.021787999999999898	-0.3318836679682135	-0.2021819818764925	-0.2479590475559234	-0.3089951351284981	-0.0572212738916277	-0.1487754052504897
0.0227879999999999	-0.3318836679682135	-0.2632180694490671	-0.3776607336476445	-0.3700312227010727	-0.0267032301053404	-0.1487754052504897
0.0237879999999999	-0.3089951351284981	-0.2250705147162079	-0.2784770913422107	-0.3471426898613572	-0.1487754052504897	-0.0953688286244869
0.0247879999999999	-0.3089951351284981	-0.2708475803956389	-0.354772200807929	-0.354772200807929	-0.0114442082121968	-0.1564049161970615
0.0257879999999999	-0.354772200807929	-0.1716639380902052	-0.3395131789147854	-0.3395131789147854	-0.1106278505176305	-0.1411458943039178
0.026787999999999902	-0.3089951351284981	-0.1258868724107742	-0.2708475803956389	-0.3395131789147854	-0.0801098067313432	-0.1716639380902052
0.027787999999999903	-0.2632180694490671	-0.2403295366093516	-0.2937361132353544	-0.3318836679682135	-0.0648507848381996	-0.1564049161970615
0.028787999999999904	-0.2784770913422107	-0.2479590475559234	-0.2861066022887826	-0.3395131789147854	-0.0343327410519123	-0.2098114928230643
0.029787999999999898	-0.3700312227010727	-0.2479590475559234	-0.2937361132353544	-0.3852902445942163	-0.1258868724107742	-0.0801098067313432
0.0307879999999999	-0.2784770913422107	-0.2479590475559234	-0.2937361132353544	-0.3624017117545008	-0.0343327410519123	-0.1258868724107742
0.0317879999999999	-0.2555885585024953	-0.2861066022887826	-0.3013656241819262	-0.354772200807929	-0.0648507848381996	-0.0801098067313432
0.0327879999999999	-0.2555885585024953	-0.2098114928230643	-0.2632180694490671	-0.3700312227010727	-0.0724802957847714	-0.179293449036777
0.0337879999999999	-0.3624017117545008	-0.2937361132353544	-0.2937361132353544	-0.3318836679682135	-0.0648507848381996	-0.1106278505176305
0.0347879999999999	-0.2784770913422107	-0.2555885585024953	-0.2555885585024953	-0.3089951351284981	-0.0648507848381996	-0.1258868724107742
0.0357879999999999	-0.2784770913422107	-0.2708475803956389	-0.2784770913422107	-0.40054926648736	-0.1029983395710587	-0.1029983395710587
0.036787999999999904	-0.3318836679682135	-0.2479590475559234	-0.2632180694490671	-0.3395131789147854	-0.133516383357346	-0.0953688286244869
0.037787999999999905	-0.3166246460750699	-0.1945524709299206	-0.3318836679682135	-0.3624017117545008	-0.0801098067313432	-0.1182573614642024
0.038787999999999906	-0.3013656241819262	-0.3242541570216417	-0.40054926648736	-0.40054926648736	-0.0267032301053404	-0.2021819818764925
0.0397879999999999	-0.3395131789147854	-0.1411458943039178	-0.2937361132353544	-0.3624017117545008	-0.1640344271436333	-0.0495917629450559
0.0407879999999999	-0.3318836679682135	-0.2327000256627798	-0.2937361132353544	-0.3242541570216417	-0.1411458943039178	-0.1106278505176305
0.0417879999999999	-0.2708475803956389	-0.2479590475559234	-0.2708475803956389	-0.2555885585024953	-0.133516383357346	-0.0572212738916277
0.0427879999999999	-0.1945524709299206	-0.3242541570216417	-0.3395131789147854	-0.4615853540599346	-0.0953688286244869	-0.1564049161970615
0.0437879999999999	-0.3852902445942163	-0.2708475803956389	-0.3471426898613572	-0.3471426898613572	-0.1182573614642024	-0.1029983395710587
0.044787999999999904	-0.179293449036777	-0.3089951351284981	-0.3089951351284981	-0.3700312227010727	-0.0877393176779151	-0.0648507848381996
0.045787999999999905	-0.2784770913422107	-0.2479590475559234	-0.2632180694490671	-0.4081787541508674	-0.1182573614642024	0.0495918793603777
0.0467879999999999	-0.3242541570216417	-0.2174410037696361	-0.2937361132353544	-0.3395131789147854	-0.0419622519984841	-0.0724802957847714
0.0477879999999999	-0.2403295366093516	-0.3318836679682135	-0.3624017117545008	-0.40054926648736	-0.1411458943039178	-0.0114442082121968
0.0487879999999999	-0.3318836679682135	-0.3013656241819262	-0.2555885585024953	-0.3471426898613572	-0.0724802957847714	-0.0190737191587686
0.0497879999999999	-0.2632180694490671	-0.3471426898613572	-0.2479590475559234	-0.3624017117545008	-0.0419622519984841	-0.0648507848381996
0.0507879999999999	-0.2861066022887826	-0.2632180694490671	-0.2555885585024953	-0.40054926648736	-0.0495917629450559	-0.0343327410519123
0.051787999999999904	-0.3624017117545008	-0.2555885585024953	-0.3242541570216417	-0.3089951351284981	-0.1029983395710587	0.0038148136809468
0.052787999999999904	-0.2555885585024953	-0.2174410037696361	-0.3624017117545008	-0.3242541570216417	-0.1106278505176305	0.0190738355740904
0.053787999999999905	-0.3471426898613572	-0.2784770913422107	-0.3395131789147854	-0.3166246460750699	-0.1182573614642024	-0.0572212738916277
0.054787999999999906	-0.2861066022887826	-0.2327000256627798	-0.3166246460750699	-0.3624017117545008	-0.1182573614642024	-0.0495917629450559
0.0557879999999999	-0.2250705147162079	-0.2021819818764925	-0.3624017117545008	-0.2937361132353544	-0.0495917629450559	-0.0343327410519123
0.0567879999999999	-0.2861066022887826	-0.2632180694490671	-0.2784770913422107	-0.3624017117545008	-0.1182573614642024	-0.0114442082121968
0.0577879999999999	-0.3013656241819262	-0.2784770913422107	-0.2327000256627798	-0.3700312227010727	-0.0419622519984841	0.0190738355740904
0.0587879999999999	-0.2937361132353544	-0.2784770913422107	-0.2937361132353544	-0.4158082883805036	-0.0801098067313432	-0.0343327410519123
